# xmcd
#
# Track frame offsets:
#	150
#	7420
#	21767
#	36597
#	57922
#	74610
#	94802
#	116030
#	133212
#	150185
#	162235
#	178352
#
# Disc length: 2619 seconds
#
# Revision: 1
# Processed by: cddbd v1.5PL3 Copyright (c) Steve Scherf et al.
# Submitted via: CDex 1.50Beta5
#
DISCID=ae0a390c
DTITLE=南佳孝 - SILKSCREEN
DYEAR=1900
DGENRE=Pop
TTITLE0=OVERTURE
TTITLE1=スローなブギにしてくれ
TTITLE2=醒めた部屋
TTITLE3=ホリゾント
TTITLE4=Groovy Night
TTITLE5=Hotel
TTITLE6=デ・ジャ・ブ
TTITLE7=空中庭園
TTITLE8=オンリー・ユー
TTITLE9=涙のステラ
TTITLE10=そして…
TTITLE11=ラプソディー
EXTD=
EXTT0=
EXTT1=
EXTT2=
EXTT3=
EXTT4=
EXTT5=
EXTT6=
EXTT7=
EXTT8=
EXTT9=
EXTT10=
EXTT11=
PLAYORDER=
